<?xml version="1.0" encoding="utf-8"?>
<!-- Generator: Adobe Illustrator 16.0.0, SVG Export Plug-In . SVG Version: 6.00 Build 0)  -->
<!DOCTYPE svg PUBLIC "-//W3C//DTD SVG 1.1//EN" "http://www.w3.org/Graphics/SVG/1.1/DTD/svg11.dtd">
<svg version="1.1" id="Capa_1" xmlns="http://www.w3.org/2000/svg" xmlns:xlink="http://www.w3.org/1999/xlink" x="0px" y="0px"
	 width="175.027px" height="175.05px" viewBox="0 0 175.027 175.05" enable-background="new 0 0 175.027 175.05"
	 xml:space="preserve">
<g>
	<g>
		<defs>
			<path id="SVGID_1_" d="M166.188,49.182C151.972,20.076,122.091,0.021,87.514,0.021v87.557l78.685-38.376l0.011-0.006
				L166.188,49.182z"/>
		</defs>
		<clipPath id="SVGID_2_">
			<use xlink:href="#SVGID_1_"  overflow="visible"/>
		</clipPath>
		<g transform="matrix(1 0 0 1 7.418799e-006 -5.241029e-006)" clip-path="url(#SVGID_2_)">
			
				<image overflow="visible" width="400" height="400" xlink:href="nuevoverde.jpg"  transform="matrix(1.7967 0 0 1.7967 -242.0957 -136.9829)">
			</image>
		</g>
	</g>
	<g>
		<defs>
			<path id="XMLID_5_" d="M166.198,49.202L87.514,87.579V0.021c-0.01,0-0.024,0-0.035,0v87.536L49.102,8.872
				C20.023,23.075,0,52.91,0,87.536c0,48.333,39.183,87.514,87.514,87.514c48.333,0,87.514-39.181,87.514-87.514
				C175.027,73.785,171.848,60.78,166.198,49.202z"/>
		</defs>
		<clipPath id="XMLID_2_">
			<use xlink:href="#XMLID_5_"  overflow="visible"/>
		</clipPath>
		<g transform="matrix(1 0 0 1 7.418799e-006 -5.241029e-006)" clip-path="url(#XMLID_2_)">
			
				<image overflow="visible" width="400" height="400" xlink:href="textura-roja.jpg"  transform="matrix(1.7967 0 0 1.7967 -242.0957 -136.9829)">
			</image>
		</g>
	</g>
	<g>
		<defs>
			<path id="SVGID_3_" d="M87.37,0.025C73.656,0.047,60.689,3.218,49.144,8.85l-0.049,0.011l0.007,0.011l38.377,78.686V0.022V0
				L87.37,0.025z"/>
		</defs>
		<clipPath id="SVGID_4_">
			<use xlink:href="#SVGID_3_"  overflow="visible"/>
		</clipPath>
		<g transform="matrix(1 0 0 1 7.418799e-006 -5.241029e-006)" clip-path="url(#SVGID_4_)">
			
				<image overflow="visible" width="400" height="400" xlink:href="nuevoazul.jpg"  transform="matrix(1.7967 0 0 1.7967 -242.0957 -136.9829)">
			</image>
		</g>
	</g>
</g>
<g>
	<g>
		<path fill="#FFFFFF" d="M66.96,27.665h0.621c0.199-0.461,0.404-0.93,0.615-1.406s0.422-0.947,0.631-1.412s0.414-0.919,0.615-1.362
			s0.393-0.866,0.576-1.269H67.54v1.008h-1.682v-2.836h6.492v1.324c-0.461,0.945-0.93,1.921-1.408,2.927s-0.943,2.015-1.393,3.026
			h0.58v1.605h-3.17V27.665z"/>
		<path fill="#FFFFFF" d="M73.827,22.432c0-0.293,0.055-0.57,0.164-0.832s0.264-0.491,0.461-0.688s0.432-0.354,0.703-0.469
			s0.568-0.173,0.893-0.173s0.623,0.058,0.895,0.173s0.506,0.271,0.703,0.469s0.35,0.427,0.459,0.688s0.164,0.539,0.164,0.832
			c0,0.289-0.053,0.563-0.16,0.823s-0.258,0.488-0.451,0.686s-0.428,0.354-0.701,0.472s-0.576,0.176-0.908,0.176
			c-0.336,0-0.639-0.058-0.91-0.173s-0.506-0.271-0.701-0.469s-0.346-0.427-0.451-0.688S73.827,22.721,73.827,22.432z
			 M80.618,20.247h1.559l-6.006,9.023h-1.559L80.618,20.247z M76.048,21.624c-0.113,0-0.219,0.02-0.318,0.059
			s-0.188,0.094-0.262,0.164s-0.131,0.155-0.172,0.255s-0.063,0.21-0.063,0.331c0,0.109,0.021,0.214,0.063,0.313
			s0.098,0.187,0.172,0.261s0.162,0.133,0.262,0.176s0.205,0.064,0.318,0.064s0.221-0.021,0.32-0.064s0.186-0.101,0.258-0.173
			s0.129-0.158,0.172-0.258s0.064-0.206,0.064-0.319c0-0.121-0.021-0.231-0.064-0.331s-0.1-0.185-0.172-0.255
			s-0.158-0.125-0.258-0.164S76.161,21.624,76.048,21.624z M78.591,27.049c0-0.293,0.055-0.57,0.164-0.832s0.264-0.491,0.461-0.688
			s0.432-0.354,0.703-0.469s0.568-0.173,0.893-0.173s0.623,0.058,0.895,0.173s0.506,0.271,0.703,0.469s0.35,0.427,0.459,0.688
			s0.164,0.539,0.164,0.832c0,0.289-0.053,0.564-0.16,0.826s-0.258,0.491-0.451,0.688s-0.428,0.354-0.701,0.472
			s-0.576,0.176-0.908,0.176s-0.635-0.058-0.908-0.173s-0.506-0.271-0.699-0.469s-0.344-0.427-0.451-0.688
			S78.591,27.342,78.591,27.049z M80.812,26.247c-0.113,0-0.219,0.02-0.318,0.059s-0.188,0.094-0.262,0.164
			s-0.131,0.154-0.172,0.252s-0.063,0.207-0.063,0.328c0,0.113,0.021,0.219,0.063,0.316s0.098,0.184,0.172,0.258
			s0.162,0.133,0.262,0.176s0.205,0.064,0.318,0.064s0.221-0.021,0.32-0.062s0.186-0.099,0.258-0.173s0.129-0.161,0.172-0.261
			s0.064-0.206,0.064-0.319c0-0.121-0.021-0.23-0.064-0.328s-0.1-0.182-0.172-0.252s-0.158-0.125-0.258-0.164
			S80.925,26.247,80.812,26.247z"/>
	</g>
</g>
<g>
	<g>
		<path fill="#FFFFFF" d="M101.281,55.837h1.303v-6.479l-1.909,1.139v-2.851l3.424-2.015l1.188,0.016v10.19h1.311v2.245h-5.316
			V55.837z"/>
		<path fill="#FFFFFF" d="M112.25,45.434c0.557,0,1.081,0.098,1.572,0.295c0.492,0.197,0.921,0.461,1.286,0.794
			c0.366,0.333,0.655,0.721,0.868,1.163c0.214,0.442,0.32,0.91,0.32,1.401c0,0.481-0.112,0.934-0.334,1.36
			c-0.221,0.426-0.519,0.8-0.896,1.123c0.459,0.328,0.822,0.725,1.09,1.192c0.268,0.467,0.401,0.981,0.401,1.544
			c0,0.535-0.112,1.043-0.333,1.524c-0.222,0.48-0.524,0.905-0.909,1.273s-0.841,0.661-1.368,0.876
			c-0.527,0.216-1.092,0.324-1.698,0.324c-0.404,0-0.792-0.05-1.163-0.151c-0.372-0.101-0.719-0.242-1.038-0.422
			s-0.608-0.396-0.868-0.647c-0.26-0.251-0.48-0.522-0.663-0.815c-0.184-0.292-0.325-0.602-0.427-0.93
			c-0.101-0.328-0.149-0.661-0.149-1c0-0.579,0.136-1.107,0.409-1.585s0.642-0.881,1.105-1.208c-0.376-0.316-0.674-0.683-0.89-1.098
			s-0.322-0.852-0.322-1.311c0-0.508,0.104-0.986,0.313-1.434c0.211-0.448,0.497-0.84,0.86-1.175
			c0.363-0.336,0.789-0.602,1.275-0.799S111.698,45.434,112.25,45.434z M110.316,54.272c0,0.224,0.049,0.437,0.147,0.639
			c0.099,0.202,0.235,0.378,0.41,0.528c0.175,0.15,0.379,0.27,0.614,0.36c0.234,0.09,0.488,0.135,0.762,0.135
			c0.268,0,0.516-0.045,0.748-0.135c0.232-0.09,0.434-0.21,0.606-0.36c0.172-0.15,0.309-0.327,0.406-0.528
			c0.099-0.202,0.147-0.415,0.147-0.639c0-0.218-0.049-0.425-0.147-0.619c-0.098-0.194-0.234-0.364-0.406-0.512
			c-0.173-0.147-0.374-0.265-0.606-0.353c-0.232-0.087-0.48-0.131-0.748-0.131c-0.273,0-0.527,0.044-0.762,0.131
			c-0.235,0.087-0.439,0.205-0.614,0.353s-0.312,0.318-0.41,0.512S110.316,54.054,110.316,54.272z M110.619,49.227
			c0,0.186,0.041,0.362,0.123,0.528s0.197,0.313,0.345,0.438s0.319,0.226,0.519,0.299s0.415,0.11,0.645,0.11s0.442-0.037,0.642-0.11
			s0.374-0.174,0.521-0.299s0.265-0.271,0.353-0.438c0.087-0.167,0.131-0.343,0.131-0.528c0-0.191-0.044-0.373-0.131-0.545
			c-0.088-0.172-0.205-0.324-0.353-0.455c-0.147-0.131-0.322-0.235-0.521-0.312c-0.199-0.076-0.412-0.115-0.642-0.115
			s-0.445,0.039-0.645,0.115c-0.199,0.077-0.371,0.18-0.519,0.312c-0.147,0.131-0.263,0.283-0.345,0.455
			S110.619,49.035,110.619,49.227z"/>
		<path fill="#FFFFFF" d="M118.41,48.522c0-0.41,0.076-0.797,0.229-1.164c0.152-0.366,0.365-0.687,0.642-0.962
			c0.275-0.276,0.604-0.494,0.982-0.655c0.38-0.161,0.798-0.242,1.251-0.242s0.868,0.081,1.248,0.242s0.707,0.379,0.983,0.655
			c0.275,0.276,0.491,0.597,0.644,0.962c0.153,0.366,0.229,0.754,0.229,1.164c0,0.404-0.076,0.788-0.227,1.151
			s-0.36,0.683-0.631,0.958s-0.595,0.496-0.978,0.659c-0.382,0.164-0.806,0.246-1.27,0.246c-0.47,0-0.896-0.081-1.275-0.242
			c-0.379-0.161-0.704-0.38-0.978-0.656c-0.272-0.275-0.483-0.596-0.631-0.962C118.483,49.311,118.41,48.926,118.41,48.522z
			 M127.904,45.466h2.179l-8.396,12.615h-2.179L127.904,45.466z M121.515,47.392c-0.158,0-0.309,0.027-0.448,0.082
			c-0.139,0.055-0.259,0.131-0.362,0.229c-0.104,0.098-0.187,0.217-0.243,0.356c-0.058,0.139-0.085,0.293-0.085,0.463
			c0,0.153,0.027,0.299,0.085,0.438c0.057,0.139,0.139,0.261,0.243,0.365c0.104,0.104,0.224,0.186,0.362,0.246
			c0.14,0.06,0.29,0.09,0.448,0.09s0.306-0.03,0.445-0.09c0.139-0.06,0.259-0.141,0.36-0.242c0.101-0.101,0.183-0.221,0.243-0.36
			c0.06-0.139,0.09-0.288,0.09-0.446c0-0.169-0.03-0.324-0.09-0.463c-0.061-0.139-0.143-0.258-0.243-0.356
			c-0.102-0.098-0.222-0.175-0.36-0.229C121.82,47.418,121.673,47.392,121.515,47.392z M125.07,54.977
			c0-0.41,0.076-0.797,0.229-1.163c0.153-0.366,0.366-0.687,0.643-0.963c0.275-0.276,0.604-0.494,0.982-0.655
			c0.38-0.161,0.798-0.242,1.251-0.242s0.868,0.081,1.248,0.242c0.379,0.161,0.707,0.379,0.982,0.655
			c0.276,0.276,0.492,0.597,0.645,0.963c0.153,0.366,0.229,0.753,0.229,1.163c0,0.404-0.076,0.789-0.227,1.155
			c-0.15,0.366-0.36,0.687-0.631,0.963c-0.271,0.275-0.596,0.496-0.978,0.659c-0.382,0.164-0.806,0.246-1.27,0.246
			c-0.465,0-0.888-0.08-1.27-0.241c-0.383-0.161-0.71-0.38-0.98-0.656c-0.271-0.275-0.48-0.596-0.631-0.962
			C125.144,55.774,125.07,55.387,125.07,54.977z M128.175,53.854c-0.158,0-0.309,0.027-0.448,0.082
			c-0.139,0.055-0.259,0.131-0.363,0.229c-0.104,0.098-0.186,0.216-0.242,0.352c-0.058,0.137-0.085,0.29-0.085,0.459
			c0,0.158,0.027,0.306,0.085,0.442c0.057,0.136,0.139,0.256,0.242,0.36c0.104,0.104,0.225,0.186,0.363,0.246
			c0.14,0.06,0.29,0.09,0.448,0.09s0.306-0.029,0.445-0.086c0.139-0.058,0.259-0.138,0.36-0.242
			c0.101-0.104,0.183-0.226,0.242-0.365c0.061-0.139,0.091-0.288,0.091-0.446c0-0.169-0.03-0.322-0.091-0.459
			c-0.06-0.136-0.142-0.254-0.242-0.352c-0.102-0.098-0.222-0.175-0.36-0.229C128.48,53.882,128.333,53.854,128.175,53.854z"/>
	</g>
</g>
<g>
	<g>
		<path fill="#FFFFFF" d="M73.765,124.266h1.054c0.338-0.782,0.686-1.577,1.044-2.386c0.357-0.809,0.716-1.607,1.07-2.396
			c0.354-0.789,0.702-1.559,1.044-2.311c0.341-0.752,0.666-1.47,0.978-2.152h-4.205v1.71h-2.854v-4.812H82.91v2.247
			c-0.781,1.604-1.577,3.259-2.389,4.966c-0.812,1.706-1.601,3.418-2.363,5.135h0.984v2.724h-5.378V124.266z"/>
		<path fill="#FFFFFF" d="M87.652,117.784c0.318-0.119,0.663-0.22,1.031-0.303c0.367-0.083,0.762-0.124,1.187-0.124
			c0.676,0,1.318,0.104,1.925,0.313s1.14,0.517,1.601,0.924s0.825,0.909,1.097,1.507c0.272,0.596,0.408,1.285,0.408,2.067
			c0,0.842-0.149,1.583-0.447,2.222c-0.299,0.64-0.693,1.175-1.184,1.605c-0.49,0.432-1.047,0.756-1.673,0.975
			c-0.627,0.219-1.27,0.328-1.926,0.328c-0.649,0-1.263-0.084-1.843-0.254c-0.58-0.169-1.104-0.422-1.567-0.76
			s-0.854-0.761-1.176-1.268c-0.322-0.508-0.544-1.1-0.663-1.775l3.072-0.834c0.039,0.311,0.122,0.59,0.248,0.834
			c0.126,0.246,0.285,0.455,0.474,0.627c0.189,0.172,0.408,0.305,0.656,0.397c0.249,0.093,0.514,0.14,0.799,0.14
			c0.318,0,0.609-0.061,0.875-0.18c0.265-0.119,0.49-0.283,0.676-0.492s0.331-0.452,0.435-0.73c0.103-0.278,0.152-0.58,0.152-0.904
			c0-0.271-0.054-0.537-0.159-0.795c-0.106-0.26-0.259-0.488-0.457-0.687c-0.199-0.198-0.438-0.358-0.716-0.478
			s-0.587-0.179-0.925-0.179c-0.431,0-0.802,0.042-1.117,0.124c-0.314,0.083-0.636,0.201-0.961,0.354l-2.694-0.498v-8.022h9.574
			v3.042h-6.701V117.784z"/>
		<path fill="#FFFFFF" d="M97.405,115.388c0-0.497,0.093-0.967,0.278-1.412c0.186-0.444,0.447-0.833,0.782-1.168
			c0.335-0.335,0.732-0.6,1.193-0.795c0.46-0.195,0.964-0.293,1.514-0.293c0.551,0,1.058,0.098,1.519,0.293
			c0.46,0.195,0.857,0.46,1.192,0.795c0.335,0.334,0.594,0.724,0.779,1.168c0.186,0.444,0.278,0.915,0.278,1.412
			c0,0.491-0.09,0.956-0.272,1.397c-0.182,0.441-0.438,0.829-0.765,1.163c-0.328,0.334-0.727,0.602-1.19,0.8
			c-0.464,0.198-0.978,0.298-1.541,0.298c-0.569,0-1.083-0.098-1.544-0.293s-0.858-0.46-1.189-0.795
			c-0.332-0.334-0.587-0.724-0.766-1.168S97.405,115.878,97.405,115.388z M108.928,111.68h2.645l-10.19,15.31h-2.645L108.928,111.68
			z M101.173,114.016c-0.191,0-0.371,0.033-0.54,0.099s-0.318,0.159-0.443,0.278c-0.126,0.12-0.223,0.264-0.292,0.433
			s-0.106,0.356-0.106,0.562c0,0.186,0.037,0.363,0.106,0.532c0.069,0.169,0.166,0.316,0.292,0.442
			c0.125,0.126,0.274,0.225,0.443,0.298c0.169,0.073,0.349,0.109,0.54,0.109c0.192,0,0.375-0.036,0.544-0.109
			c0.169-0.073,0.314-0.17,0.438-0.293c0.122-0.123,0.219-0.269,0.291-0.438c0.073-0.169,0.109-0.35,0.109-0.542
			c0-0.205-0.036-0.393-0.109-0.562c-0.072-0.169-0.169-0.313-0.291-0.433c-0.123-0.119-0.269-0.212-0.438-0.278
			S101.365,114.016,101.173,114.016z M105.488,123.222c0-0.497,0.092-0.968,0.278-1.412c0.186-0.443,0.447-0.833,0.781-1.168
			c0.335-0.334,0.732-0.6,1.193-0.795s0.964-0.293,1.515-0.293c0.55,0,1.057,0.098,1.518,0.293s0.858,0.461,1.193,0.795
			c0.334,0.335,0.593,0.725,0.778,1.168c0.186,0.444,0.278,0.915,0.278,1.412c0,0.49-0.09,0.958-0.271,1.402
			c-0.183,0.443-0.438,0.833-0.766,1.168c-0.328,0.334-0.726,0.602-1.189,0.8s-0.978,0.298-1.541,0.298s-1.077-0.098-1.541-0.293
			s-0.858-0.461-1.187-0.795c-0.328-0.335-0.583-0.725-0.766-1.168C105.58,124.189,105.488,123.719,105.488,123.222z
			 M109.256,121.86c-0.192,0-0.371,0.033-0.54,0.099c-0.169,0.066-0.318,0.159-0.444,0.278s-0.222,0.262-0.292,0.428
			c-0.069,0.166-0.105,0.352-0.105,0.557c0,0.192,0.036,0.371,0.105,0.537c0.07,0.166,0.166,0.312,0.292,0.438
			c0.126,0.125,0.275,0.225,0.444,0.298s0.348,0.109,0.54,0.109s0.374-0.034,0.543-0.104c0.169-0.069,0.315-0.167,0.438-0.293
			c0.123-0.126,0.219-0.273,0.292-0.442s0.109-0.35,0.109-0.542c0-0.205-0.036-0.391-0.109-0.557s-0.169-0.309-0.292-0.428
			c-0.122-0.119-0.269-0.212-0.438-0.278C109.63,121.894,109.448,121.86,109.256,121.86z"/>
	</g>
</g>
</svg>
