<?xml version="1.0" encoding="utf-8"?>
<!-- Generator: Adobe Illustrator 16.0.0, SVG Export Plug-In . SVG Version: 6.00 Build 0)  -->
<!DOCTYPE svg PUBLIC "-//W3C//DTD SVG 1.1//EN" "http://www.w3.org/Graphics/SVG/1.1/DTD/svg11.dtd">
<svg version="1.1" id="Capa_1" xmlns="http://www.w3.org/2000/svg" xmlns:xlink="http://www.w3.org/1999/xlink" x="0px" y="0px"
	 width="191.884px" height="163.205px" viewBox="0 0 191.884 163.205" enable-background="new 0 0 191.884 163.205"
	 xml:space="preserve">
<g>
	<g>
		<path fill="#404C2D" d="M35.948,73.9c0-0.151-0.034-0.303-0.102-0.454c-0.068-0.151-0.167-0.288-0.296-0.409
			c-0.128-0.121-0.282-0.219-0.461-0.295s-0.377-0.113-0.594-0.113c-0.187,0-0.364,0.031-0.533,0.094
			c-0.169,0.063-0.318,0.148-0.446,0.253c-0.129,0.106-0.231,0.229-0.307,0.367s-0.113,0.375-0.113,0.707l-2.353-0.015
			c0.005-0.489,0.098-0.956,0.279-1.399s0.436-0.834,0.761-1.172s0.717-0.605,1.176-0.802s0.972-0.295,1.536-0.295
			c0.534,0,1.034,0.092,1.498,0.276s0.867,0.433,1.21,0.745s0.611,0.673,0.806,1.082c0.194,0.409,0.291,0.837,0.291,1.286
			c0,0.489-0.101,0.934-0.303,1.335c-0.201,0.401-0.477,0.725-0.824,0.972c0.182,0.101,0.351,0.235,0.507,0.401
			c0.156,0.167,0.294,0.358,0.412,0.575c0.119,0.217,0.212,0.454,0.28,0.71c0.068,0.258,0.102,0.527,0.102,0.811
			c0,0.494-0.101,0.963-0.302,1.406c-0.202,0.443-0.48,0.834-0.836,1.169s-0.775,0.602-1.26,0.798
			c-0.484,0.197-1.006,0.295-1.566,0.295c-0.529,0-1.022-0.083-1.479-0.249c-0.456-0.167-0.856-0.397-1.199-0.692
			s-0.619-0.643-0.828-1.044s-0.333-0.735-0.371-1.003c-0.037-0.267-0.059-0.544-0.063-0.832h2.375c0.03,0.53,0.183,0.92,0.458,1.17
			c0.274,0.249,0.654,0.374,1.138,0.374c0.217,0,0.42-0.036,0.609-0.11c0.189-0.072,0.354-0.171,0.495-0.295
			c0.142-0.123,0.254-0.268,0.337-0.435s0.125-0.346,0.125-0.537c0-0.202-0.037-0.39-0.109-0.563
			c-0.073-0.174-0.178-0.323-0.314-0.446c-0.136-0.124-0.303-0.221-0.499-0.292c-0.197-0.07-0.416-0.106-0.658-0.106h-1.06v-2.065
			h1.074c0.223,0,0.42-0.03,0.594-0.091c0.175-0.061,0.322-0.144,0.443-0.25s0.213-0.232,0.275-0.378
			C35.917,74.238,35.948,74.076,35.948,73.9z"/>
		<path fill="#404C2D" d="M39.542,80.019h1.202v-5.983l-1.763,1.052v-2.633l3.162-1.861l1.098,0.015v9.41h1.21v2.073h-4.909V80.019z
			"/>
		<path fill="#404C2D" d="M46.434,73.264c0-0.378,0.07-0.736,0.211-1.074c0.142-0.338,0.34-0.634,0.595-0.889
			c0.254-0.255,0.557-0.457,0.907-0.605c0.351-0.148,0.735-0.223,1.153-0.223c0.419,0,0.804,0.075,1.154,0.223
			c0.351,0.149,0.652,0.351,0.907,0.605c0.255,0.254,0.453,0.551,0.594,0.889c0.142,0.338,0.212,0.696,0.212,1.074
			c0,0.373-0.069,0.728-0.208,1.063s-0.333,0.63-0.582,0.885c-0.25,0.255-0.551,0.458-0.904,0.609
			c-0.353,0.151-0.744,0.227-1.173,0.227c-0.434,0-0.825-0.074-1.176-0.223c-0.351-0.148-0.652-0.35-0.904-0.605
			s-0.446-0.551-0.582-0.889C46.501,73.993,46.434,73.637,46.434,73.264z M55.201,70.442h2.013l-7.755,11.65h-2.012L55.201,70.442z
			 M49.3,72.22c-0.146,0-0.283,0.025-0.412,0.076c-0.128,0.05-0.24,0.121-0.337,0.212c-0.096,0.091-0.17,0.2-0.223,0.329
			c-0.053,0.128-0.079,0.271-0.079,0.427c0,0.141,0.026,0.276,0.079,0.405s0.127,0.241,0.223,0.336
			c0.097,0.096,0.209,0.172,0.337,0.227c0.129,0.056,0.267,0.083,0.412,0.083c0.146,0,0.284-0.028,0.413-0.083
			c0.128-0.055,0.239-0.13,0.332-0.223c0.094-0.093,0.168-0.204,0.224-0.333c0.056-0.128,0.083-0.266,0.083-0.412
			c0-0.156-0.027-0.299-0.083-0.427c-0.056-0.129-0.13-0.238-0.224-0.329c-0.093-0.091-0.204-0.162-0.332-0.212
			C49.584,72.246,49.446,72.22,49.3,72.22z M52.583,79.225c0-0.378,0.071-0.736,0.212-1.074c0.142-0.338,0.339-0.634,0.594-0.889
			s0.558-0.457,0.908-0.605c0.351-0.149,0.734-0.223,1.154-0.223c0.418,0,0.802,0.074,1.152,0.223
			c0.351,0.148,0.653,0.35,0.907,0.605c0.255,0.255,0.454,0.551,0.596,0.889c0.141,0.338,0.212,0.696,0.212,1.074
			c0,0.374-0.071,0.729-0.21,1.067s-0.333,0.634-0.582,0.889c-0.25,0.254-0.55,0.457-0.903,0.608
			c-0.353,0.151-0.743,0.228-1.172,0.228c-0.43,0-0.82-0.074-1.174-0.224c-0.353-0.149-0.654-0.351-0.903-0.604
			c-0.25-0.256-0.444-0.552-0.583-0.89S52.583,79.603,52.583,79.225z M55.451,78.189c-0.146,0-0.284,0.025-0.413,0.076
			c-0.129,0.05-0.241,0.121-0.337,0.211c-0.096,0.091-0.17,0.199-0.223,0.326c-0.053,0.125-0.08,0.267-0.08,0.423
			c0,0.146,0.027,0.282,0.08,0.409c0.053,0.125,0.127,0.236,0.223,0.332s0.208,0.172,0.337,0.227
			c0.129,0.057,0.267,0.084,0.413,0.084s0.282-0.026,0.411-0.08c0.128-0.053,0.239-0.127,0.332-0.223
			c0.094-0.096,0.169-0.208,0.225-0.336c0.056-0.129,0.083-0.267,0.083-0.413c0-0.156-0.027-0.298-0.083-0.423
			c-0.056-0.127-0.131-0.235-0.225-0.326c-0.093-0.09-0.204-0.161-0.332-0.211C55.733,78.214,55.598,78.189,55.451,78.189z"/>
	</g>
</g>
<g>
	<g>
		<path fill="#741E18" d="M139.809,0.166l-2.337,4.093c0.136-0.01,0.269-0.009,0.397,0.004c0.128,0.012,0.256,0.031,0.382,0.057
			c0.429,0.081,0.829,0.228,1.202,0.442c0.374,0.214,0.697,0.479,0.973,0.794c0.274,0.315,0.491,0.672,0.65,1.07
			s0.238,0.822,0.238,1.271c0,0.55-0.104,1.059-0.314,1.528c-0.209,0.469-0.495,0.875-0.858,1.218
			c-0.363,0.343-0.785,0.611-1.267,0.806c-0.481,0.194-0.995,0.291-1.54,0.291c-0.534,0-1.04-0.097-1.517-0.291
			c-0.477-0.194-0.894-0.459-1.252-0.794c-0.357-0.335-0.642-0.732-0.851-1.191c-0.21-0.459-0.314-0.953-0.314-1.483
			c0-0.252,0.025-0.493,0.076-0.722c0.05-0.229,0.118-0.454,0.204-0.673s0.184-0.435,0.295-0.647s0.227-0.426,0.348-0.643
			l2.837-5.129H139.809z M137.305,6.399c-0.308,0-0.586,0.057-0.836,0.17c-0.249,0.113-0.455,0.276-0.616,0.488
			c-0.065,0.126-0.12,0.262-0.162,0.409c-0.043,0.146-0.064,0.308-0.064,0.484c0,0.177,0.034,0.357,0.102,0.541
			c0.068,0.184,0.173,0.353,0.314,0.507c0.141,0.154,0.32,0.28,0.537,0.378c0.217,0.098,0.474,0.147,0.771,0.147
			c0.201,0,0.406-0.036,0.612-0.106c0.207-0.071,0.392-0.171,0.553-0.303c0.161-0.131,0.294-0.293,0.396-0.488
			c0.104-0.194,0.155-0.415,0.155-0.662c0-0.237-0.046-0.451-0.14-0.643c-0.094-0.191-0.221-0.355-0.382-0.492
			c-0.161-0.136-0.349-0.242-0.56-0.317C137.774,6.438,137.547,6.399,137.305,6.399z"/>
		<path fill="#741E18" d="M146.784,11.755c-0.808,0-1.493-0.149-2.058-0.446c-0.565-0.297-1.025-0.708-1.381-1.229
			s-0.615-1.137-0.779-1.846s-0.246-1.471-0.246-2.288c0-0.807,0.078-1.567,0.234-2.281c0.156-0.714,0.411-1.339,0.765-1.876
			c0.353-0.537,0.814-0.962,1.384-1.275c0.57-0.313,1.269-0.469,2.096-0.469c0.817,0,1.509,0.154,2.076,0.461
			s1.028,0.726,1.381,1.255c0.354,0.53,0.609,1.149,0.768,1.857c0.159,0.708,0.238,1.464,0.238,2.266
			c0,0.812-0.082,1.575-0.245,2.288c-0.164,0.714-0.424,1.335-0.779,1.865c-0.355,0.53-0.818,0.948-1.389,1.256
			C148.279,11.602,147.591,11.755,146.784,11.755z M146.784,9.433c0.448,0,0.806-0.089,1.07-0.269s0.468-0.426,0.608-0.741
			c0.142-0.315,0.232-0.69,0.272-1.124s0.061-0.905,0.061-1.415c0-0.5-0.021-0.964-0.061-1.396c-0.04-0.431-0.13-0.807-0.269-1.127
			s-0.34-0.571-0.605-0.752c-0.265-0.182-0.619-0.272-1.063-0.272c-0.449,0-0.807,0.091-1.074,0.272
			c-0.268,0.181-0.472,0.432-0.612,0.752c-0.142,0.32-0.233,0.696-0.276,1.127c-0.043,0.432-0.064,0.896-0.064,1.396
			c0,0.509,0.021,0.981,0.064,1.415s0.134,0.808,0.272,1.124c0.139,0.315,0.34,0.562,0.604,0.741
			C145.979,9.344,146.335,9.433,146.784,9.433z"/>
		<path fill="#741E18" d="M153.101,2.821c0-0.378,0.07-0.736,0.212-1.074c0.141-0.338,0.339-0.634,0.594-0.889
			c0.254-0.255,0.557-0.457,0.907-0.605c0.351-0.149,0.735-0.223,1.153-0.223c0.419,0,0.804,0.074,1.154,0.223
			c0.351,0.148,0.653,0.35,0.907,0.605c0.255,0.255,0.453,0.551,0.594,0.889c0.142,0.338,0.212,0.696,0.212,1.074
			c0,0.374-0.069,0.728-0.208,1.063s-0.333,0.63-0.582,0.885c-0.25,0.254-0.551,0.458-0.904,0.609
			c-0.353,0.151-0.744,0.227-1.173,0.227c-0.434,0-0.825-0.075-1.176-0.223c-0.351-0.149-0.652-0.351-0.904-0.605
			c-0.252-0.254-0.446-0.551-0.582-0.889C153.168,3.55,153.101,3.195,153.101,2.821z M161.868,0h2.012l-7.754,11.649h-2.012
			L161.868,0z M155.967,1.777c-0.146,0-0.283,0.025-0.412,0.076c-0.128,0.051-0.24,0.121-0.336,0.212s-0.171,0.201-0.224,0.329
			s-0.079,0.271-0.079,0.427c0,0.142,0.026,0.276,0.079,0.405c0.053,0.129,0.128,0.241,0.224,0.337
			c0.096,0.096,0.208,0.171,0.336,0.227c0.129,0.056,0.267,0.083,0.412,0.083c0.146,0,0.284-0.028,0.413-0.083
			c0.128-0.055,0.239-0.13,0.333-0.223c0.093-0.093,0.167-0.204,0.223-0.333c0.056-0.129,0.083-0.266,0.083-0.413
			c0-0.156-0.027-0.299-0.083-0.427s-0.13-0.238-0.223-0.329c-0.094-0.091-0.205-0.161-0.333-0.212
			C156.251,1.803,156.113,1.777,155.967,1.777z M159.25,8.782c0-0.378,0.071-0.736,0.212-1.074c0.142-0.338,0.34-0.634,0.594-0.889
			c0.255-0.254,0.558-0.457,0.908-0.605c0.351-0.149,0.735-0.223,1.153-0.223c0.419,0,0.804,0.074,1.154,0.223
			c0.35,0.148,0.652,0.351,0.907,0.605c0.255,0.255,0.453,0.551,0.594,0.889c0.142,0.338,0.212,0.696,0.212,1.074
			c0,0.374-0.069,0.729-0.208,1.067s-0.333,0.634-0.582,0.889c-0.25,0.255-0.552,0.458-0.904,0.609
			c-0.354,0.151-0.744,0.227-1.173,0.227s-0.819-0.074-1.172-0.223c-0.354-0.148-0.654-0.351-0.904-0.605
			c-0.25-0.255-0.444-0.551-0.583-0.889S159.25,9.161,159.25,8.782z M162.117,7.746c-0.146,0-0.283,0.025-0.412,0.076
			s-0.241,0.121-0.337,0.212s-0.17,0.199-0.223,0.325s-0.079,0.267-0.079,0.423c0,0.146,0.026,0.283,0.079,0.409
			s0.127,0.237,0.223,0.333s0.208,0.171,0.337,0.227c0.129,0.055,0.266,0.083,0.412,0.083s0.284-0.026,0.412-0.08
			c0.129-0.053,0.24-0.127,0.333-0.223c0.094-0.096,0.168-0.208,0.224-0.336c0.056-0.129,0.083-0.266,0.083-0.413
			c0-0.156-0.027-0.297-0.083-0.423s-0.13-0.234-0.224-0.325c-0.093-0.091-0.204-0.162-0.333-0.212
			C162.401,7.771,162.264,7.746,162.117,7.746z"/>
	</g>
</g>
<g>
	<defs>
		<rect id="XMLID_3_" y="88.906" width="89.482" height="74.299"/>
	</defs>
	<clipPath id="XMLID_2_">
		<use xlink:href="#XMLID_3_"  overflow="visible"/>
	</clipPath>
	<g transform="matrix(1 0 0 1 -1.539000e-005 -6.967421e-007)" clip-path="url(#XMLID_2_)">
		
			<image overflow="visible" width="400" height="400" xlink:href="nuevoverde.jpg"  transform="matrix(1.291 0 0 1.291 -257.2383 -181.1636)">
		</image>
	</g>
</g>
<g>
	<defs>
		<rect id="XMLID_4_" x="102.402" y="19.401" width="89.481" height="143.804"/>
	</defs>
	<clipPath id="XMLID_5_">
		<use xlink:href="#XMLID_4_"  overflow="visible"/>
	</clipPath>
	<g transform="matrix(1 0 0 1 -4.329955e-006 -6.967421e-007)" clip-path="url(#XMLID_5_)">
		
			<image overflow="visible" width="400" height="400" xlink:href="textura-roja.jpg"  transform="matrix(1.291 0 0 1.291 -252.0742 -181.1636)">
		</image>
	</g>
</g>
</svg>
