<?xml version="1.0" encoding="utf-8"?>
<!-- Generator: Adobe Illustrator 16.0.0, SVG Export Plug-In . SVG Version: 6.00 Build 0)  -->
<!DOCTYPE svg PUBLIC "-//W3C//DTD SVG 1.1//EN" "http://www.w3.org/Graphics/SVG/1.1/DTD/svg11.dtd">
<svg version="1.1" id="Capa_1" xmlns="http://www.w3.org/2000/svg" xmlns:xlink="http://www.w3.org/1999/xlink" x="0px" y="0px"
	 width="191.885px" height="167.414px" viewBox="0 0 191.885 167.414" enable-background="new 0 0 191.885 167.414"
	 xml:space="preserve">
<g>
	<defs>
		<rect id="XMLID_1_" y="131.58" width="89.483" height="35.834"/>
	</defs>
	<clipPath id="XMLID_4_">
		<use xlink:href="#XMLID_1_"  overflow="visible"/>
	</clipPath>
	<g transform="matrix(1 0 0 1 -3.162423e-005 -2.843695e-005)" clip-path="url(#XMLID_4_)">
		
			<image overflow="visible" width="400" height="400" xlink:href="nuevoverde.jpg"  transform="matrix(1.6087 0 0 1.6087 -349.8677 -396.4307)">
		</image>
	</g>
</g>
<g>
	<defs>
		<rect id="XMLID_2_" x="102.402" y="18.108" width="89.482" height="149.306"/>
	</defs>
	<clipPath id="XMLID_5_">
		<use xlink:href="#XMLID_2_"  overflow="visible"/>
	</clipPath>
	<g transform="matrix(1 0 0 1 -2.535250e-005 -2.843695e-005)" clip-path="url(#XMLID_5_)">
		
			<image overflow="visible" width="400" height="400" xlink:href="textura-roja.jpg"  transform="matrix(1.6087 0 0 1.6087 -351.3154 -396.4307)">
		</image>
	</g>
</g>
<g>
	<g>
		<path fill="#404C2D" d="M32.611,123.049h1.202v-5.984l-1.763,1.053v-2.633l3.162-1.861l1.098,0.016v9.41h1.21v2.072h-4.909
			V123.049z"/>
		<path fill="#404C2D" d="M42.74,113.441c0.514,0,0.998,0.091,1.452,0.272s0.851,0.427,1.188,0.733
			c0.338,0.309,0.604,0.666,0.801,1.074c0.197,0.408,0.295,0.84,0.295,1.294c0,0.444-0.102,0.862-0.306,1.256
			s-0.48,0.739-0.829,1.036c0.424,0.303,0.76,0.67,1.007,1.101s0.37,0.907,0.37,1.427c0,0.494-0.102,0.963-0.307,1.406
			c-0.203,0.443-0.483,0.836-0.839,1.176c-0.355,0.341-0.776,0.611-1.264,0.811c-0.486,0.199-1.01,0.299-1.569,0.299
			c-0.373,0-0.731-0.047-1.074-0.141c-0.344-0.094-0.662-0.223-0.957-0.39c-0.295-0.166-0.563-0.365-0.802-0.597
			c-0.239-0.232-0.444-0.483-0.612-0.754c-0.17-0.27-0.301-0.556-0.395-0.857c-0.093-0.303-0.139-0.611-0.139-0.924
			c0-0.534,0.125-1.022,0.377-1.463c0.253-0.441,0.594-0.814,1.021-1.116c-0.348-0.292-0.621-0.63-0.82-1.014
			s-0.299-0.787-0.299-1.21c0-0.47,0.098-0.911,0.291-1.324c0.194-0.414,0.459-0.775,0.795-1.086
			c0.335-0.311,0.727-0.556,1.176-0.737S42.23,113.441,42.74,113.441z M40.955,121.604c0,0.207,0.045,0.404,0.136,0.59
			c0.091,0.188,0.217,0.35,0.378,0.488c0.162,0.139,0.352,0.25,0.568,0.333s0.451,0.125,0.703,0.125
			c0.247,0,0.478-0.042,0.691-0.125c0.215-0.083,0.401-0.194,0.561-0.333c0.158-0.139,0.283-0.301,0.375-0.488
			c0.09-0.186,0.135-0.383,0.135-0.59c0-0.201-0.045-0.392-0.135-0.57c-0.092-0.18-0.217-0.337-0.375-0.473
			c-0.159-0.137-0.346-0.245-0.561-0.326c-0.214-0.08-0.444-0.121-0.691-0.121c-0.252,0-0.486,0.041-0.703,0.121
			c-0.217,0.081-0.406,0.189-0.568,0.326c-0.161,0.136-0.287,0.293-0.378,0.473C41,121.212,40.955,121.402,40.955,121.604z
			 M41.234,116.943c0,0.172,0.038,0.334,0.113,0.488c0.076,0.154,0.182,0.289,0.318,0.404c0.137,0.117,0.297,0.209,0.48,0.277
			c0.184,0.067,0.382,0.102,0.594,0.102s0.41-0.034,0.594-0.102c0.184-0.068,0.344-0.16,0.48-0.277
			c0.137-0.115,0.244-0.25,0.325-0.404s0.121-0.316,0.121-0.488c0-0.176-0.04-0.344-0.121-0.502
			c-0.081-0.159-0.188-0.299-0.325-0.42s-0.297-0.217-0.48-0.288c-0.184-0.07-0.382-0.106-0.594-0.106s-0.41,0.036-0.594,0.106
			c-0.184,0.071-0.344,0.167-0.48,0.288s-0.242,0.261-0.318,0.42C41.272,116.6,41.234,116.768,41.234,116.943z"/>
		<path fill="#404C2D" d="M48.429,116.293c0-0.378,0.071-0.736,0.212-1.074s0.339-0.634,0.594-0.889
			c0.255-0.254,0.557-0.456,0.908-0.605c0.35-0.148,0.734-0.223,1.153-0.223s0.804,0.074,1.153,0.223
			c0.351,0.149,0.653,0.352,0.908,0.605c0.254,0.255,0.453,0.551,0.594,0.889s0.212,0.696,0.212,1.074
			c0,0.373-0.069,0.729-0.208,1.063s-0.333,0.63-0.582,0.885c-0.25,0.255-0.552,0.458-0.904,0.608
			c-0.354,0.152-0.744,0.228-1.173,0.228c-0.434,0-0.825-0.074-1.177-0.224c-0.35-0.148-0.651-0.35-0.904-0.604
			c-0.252-0.255-0.445-0.552-0.582-0.89C48.497,117.021,48.429,116.666,48.429,116.293z M57.196,113.472h2.013l-7.754,11.649h-2.013
			L57.196,113.472z M51.296,115.25c-0.146,0-0.284,0.024-0.413,0.075c-0.128,0.05-0.24,0.121-0.336,0.212
			c-0.096,0.09-0.17,0.2-0.223,0.329c-0.053,0.128-0.08,0.271-0.08,0.427c0,0.142,0.027,0.276,0.08,0.405
			c0.053,0.128,0.127,0.241,0.223,0.337s0.208,0.171,0.336,0.227c0.129,0.056,0.267,0.083,0.413,0.083
			c0.146,0,0.284-0.027,0.412-0.083c0.129-0.056,0.239-0.13,0.333-0.223c0.094-0.094,0.168-0.205,0.223-0.334
			c0.056-0.128,0.084-0.266,0.084-0.412c0-0.156-0.028-0.299-0.084-0.427c-0.055-0.129-0.129-0.239-0.223-0.329
			c-0.094-0.091-0.204-0.162-0.333-0.212C51.58,115.274,51.441,115.25,51.296,115.25z M54.579,122.254
			c0-0.378,0.07-0.736,0.212-1.074c0.141-0.338,0.339-0.634,0.594-0.889c0.254-0.254,0.557-0.456,0.908-0.605
			c0.35-0.148,0.734-0.223,1.152-0.223c0.42,0,0.804,0.074,1.154,0.223c0.351,0.149,0.652,0.352,0.908,0.605
			c0.254,0.255,0.452,0.551,0.594,0.889c0.141,0.338,0.211,0.696,0.211,1.074c0,0.373-0.068,0.729-0.207,1.066
			s-0.334,0.635-0.583,0.89s-0.551,0.458-0.903,0.608c-0.354,0.152-0.744,0.228-1.174,0.228c-0.428,0-0.818-0.075-1.172-0.224
			s-0.654-0.35-0.904-0.605c-0.25-0.254-0.443-0.551-0.582-0.889S54.579,122.633,54.579,122.254z M57.445,121.218
			c-0.146,0-0.283,0.025-0.412,0.075c-0.128,0.051-0.24,0.121-0.336,0.213c-0.096,0.09-0.17,0.199-0.224,0.324
			c-0.053,0.127-0.079,0.268-0.079,0.424c0,0.146,0.026,0.283,0.079,0.409c0.054,0.126,0.128,0.237,0.224,0.333
			s0.208,0.171,0.336,0.227c0.129,0.056,0.267,0.083,0.412,0.083c0.146,0,0.284-0.026,0.413-0.079
			c0.128-0.053,0.239-0.127,0.333-0.223c0.093-0.097,0.168-0.209,0.223-0.338c0.056-0.128,0.084-0.266,0.084-0.412
			c0-0.156-0.028-0.297-0.084-0.424c-0.055-0.125-0.13-0.234-0.223-0.324c-0.094-0.092-0.205-0.162-0.333-0.213
			C57.729,121.243,57.592,121.218,57.445,121.218z"/>
	</g>
</g>
<g>
	<g>
		<path fill="#741E18" d="M135.281,9.576h0.802c0.257-0.595,0.522-1.2,0.794-1.815c0.273-0.615,0.544-1.223,0.814-1.823
			c0.27-0.6,0.533-1.186,0.793-1.758c0.26-0.573,0.509-1.119,0.746-1.639h-3.2v1.301h-2.171v-3.66h8.381v1.709
			c-0.594,1.221-1.201,2.48-1.818,3.779c-0.618,1.298-1.217,2.601-1.797,3.906h0.749v2.073h-4.093V9.576z"/>
		<path fill="#741E18" d="M145.85,4.645c0.242-0.091,0.503-0.168,0.783-0.23c0.279-0.063,0.58-0.096,0.903-0.096
			c0.515,0,1.003,0.08,1.464,0.238c0.461,0.16,0.867,0.395,1.218,0.704s0.63,0.692,0.836,1.146c0.207,0.455,0.31,0.979,0.31,1.574
			c0,0.641-0.113,1.204-0.34,1.69c-0.227,0.487-0.527,0.894-0.9,1.222s-0.798,0.575-1.274,0.742
			c-0.477,0.166-0.964,0.249-1.464,0.249c-0.494,0-0.962-0.064-1.403-0.192c-0.44-0.129-0.839-0.322-1.191-0.579
			s-0.651-0.579-0.896-0.965c-0.244-0.386-0.412-0.836-0.503-1.351l2.338-0.635c0.029,0.236,0.093,0.449,0.189,0.635
			c0.096,0.188,0.215,0.346,0.359,0.477c0.143,0.131,0.31,0.232,0.498,0.303c0.189,0.07,0.393,0.105,0.609,0.105
			c0.242,0,0.464-0.045,0.666-0.135c0.201-0.092,0.373-0.217,0.514-0.375c0.142-0.159,0.252-0.344,0.33-0.557
			c0.078-0.211,0.117-0.441,0.117-0.688c0-0.207-0.041-0.408-0.121-0.605c-0.081-0.197-0.197-0.371-0.348-0.521
			c-0.152-0.152-0.334-0.273-0.545-0.363c-0.213-0.092-0.447-0.137-0.704-0.137c-0.327,0-0.611,0.031-0.851,0.095
			c-0.24,0.063-0.482,0.152-0.73,0.269l-2.05-0.379V0.182h7.284v2.314h-5.098V4.645z"/>
		<path fill="#741E18" d="M153.271,2.821c0-0.378,0.07-0.736,0.212-1.074c0.141-0.338,0.339-0.634,0.594-0.89
			c0.254-0.254,0.557-0.455,0.908-0.604c0.35-0.149,0.734-0.224,1.152-0.224c0.419,0,0.804,0.074,1.154,0.224
			s0.652,0.351,0.908,0.604c0.254,0.256,0.452,0.552,0.594,0.89c0.141,0.338,0.211,0.696,0.211,1.074
			c0,0.373-0.068,0.728-0.207,1.063s-0.334,0.63-0.583,0.886c-0.249,0.254-0.551,0.457-0.903,0.608
			c-0.354,0.151-0.744,0.228-1.174,0.228c-0.434,0-0.825-0.074-1.176-0.224s-0.652-0.351-0.904-0.604
			c-0.252-0.256-0.445-0.552-0.582-0.89S153.271,3.194,153.271,2.821z M162.037,0h2.013l-7.753,11.649h-2.013L162.037,0z
			 M156.137,1.777c-0.146,0-0.283,0.025-0.412,0.076c-0.129,0.05-0.24,0.121-0.336,0.211c-0.096,0.091-0.17,0.201-0.224,0.329
			c-0.053,0.129-0.079,0.271-0.079,0.428c0,0.142,0.026,0.276,0.079,0.405c0.054,0.128,0.128,0.24,0.224,0.336
			s0.207,0.172,0.336,0.227c0.129,0.056,0.267,0.084,0.412,0.084c0.146,0,0.284-0.028,0.413-0.084
			c0.128-0.055,0.239-0.129,0.333-0.223c0.093-0.094,0.168-0.205,0.223-0.333c0.056-0.128,0.084-0.267,0.084-0.412
			c0-0.156-0.028-0.299-0.084-0.428c-0.055-0.128-0.13-0.238-0.223-0.329c-0.094-0.09-0.205-0.161-0.333-0.211
			C156.421,1.803,156.283,1.777,156.137,1.777z M159.42,8.782c0-0.378,0.071-0.736,0.213-1.074c0.141-0.338,0.338-0.634,0.594-0.889
			c0.254-0.255,0.557-0.456,0.907-0.605s0.735-0.224,1.153-0.224c0.419,0,0.803,0.074,1.154,0.224
			c0.35,0.149,0.652,0.351,0.907,0.605s0.452,0.551,0.595,0.889c0.141,0.338,0.211,0.696,0.211,1.074
			c0,0.373-0.069,0.729-0.208,1.066s-0.333,0.634-0.583,0.89c-0.249,0.254-0.551,0.457-0.903,0.608s-0.743,0.228-1.173,0.228
			c-0.428,0-0.819-0.075-1.172-0.224c-0.354-0.149-0.654-0.351-0.904-0.605s-0.443-0.551-0.582-0.889S159.42,9.16,159.42,8.782z
			 M162.287,7.746c-0.146,0-0.283,0.025-0.412,0.075c-0.129,0.051-0.24,0.121-0.336,0.212s-0.171,0.199-0.224,0.325
			c-0.054,0.126-0.079,0.268-0.079,0.424c0,0.146,0.025,0.282,0.079,0.408c0.053,0.126,0.128,0.237,0.224,0.333
			s0.207,0.172,0.336,0.227c0.129,0.057,0.266,0.084,0.412,0.084s0.284-0.027,0.412-0.08c0.129-0.053,0.24-0.127,0.334-0.223
			c0.093-0.096,0.167-0.208,0.223-0.337c0.055-0.128,0.083-0.267,0.083-0.412c0-0.156-0.028-0.298-0.083-0.424
			c-0.056-0.126-0.13-0.234-0.223-0.325c-0.094-0.091-0.205-0.161-0.334-0.212C162.571,7.771,162.434,7.746,162.287,7.746z"/>
	</g>
</g>
</svg>
