<?xml version="1.0" encoding="utf-8"?>
<!-- Generator: Adobe Illustrator 16.0.0, SVG Export Plug-In . SVG Version: 6.00 Build 0)  -->
<!DOCTYPE svg PUBLIC "-//W3C//DTD SVG 1.1//EN" "http://www.w3.org/Graphics/SVG/1.1/DTD/svg11.dtd">
<svg version="1.1" id="Capa_1" xmlns="http://www.w3.org/2000/svg" xmlns:xlink="http://www.w3.org/1999/xlink" x="0px" y="0px"
	 width="177.582px" height="177.581px" viewBox="0 0 177.582 177.581" enable-background="new 0 0 177.582 177.581"
	 xml:space="preserve">
<g>
	<polygon fill="none" points="171.963,119.902 171.961,119.91 171.972,119.914 	"/>
	<g>
		<defs>
			<path id="SVGID_1_" d="M88.791,0v87.95l83.171,31.959c0-0.002,0.002-0.005,0.002-0.008c3.625-9.684,5.618-20.163,5.618-31.112
				C177.582,39.752,137.827,0,88.791,0z"/>
		</defs>
		<clipPath id="SVGID_2_">
			<use xlink:href="#SVGID_1_"  overflow="visible"/>
		</clipPath>
		<g transform="matrix(1 0 0 1 -1.574272e-005 1.497730e-006)" clip-path="url(#SVGID_2_)">
			
				<image overflow="visible" width="400" height="400" xlink:href="nuevoverde.jpg"  transform="matrix(1.7967 0 0 1.7967 -270.5552 -153.0879)">
			</image>
		</g>
	</g>
	<g>
		<defs>
			<path id="SVGID_3_" d="M88.791,87.95L40.904,14.038C16.309,29.826,0,57.395,0,88.79c0,49.038,39.752,88.791,88.791,88.791
				c38.086,0,70.559-23.985,83.171-57.671L88.791,87.95z"/>
		</defs>
		<clipPath id="SVGID_4_">
			<use xlink:href="#SVGID_3_"  overflow="visible"/>
		</clipPath>
		<g transform="matrix(1 0 0 1 -1.215398e-005 -5.392789e-006)" clip-path="url(#SVGID_4_)">
			
				<image overflow="visible" width="400" height="400" xlink:href="textura-roja.jpg"  transform="matrix(1.7967 0 0 1.7967 -378.3765 -111.6929)">
			</image>
		</g>
	</g>
	<g>
		<defs>
			<path id="SVGID_5_" d="M40.978,13.99l-0.088,0.026l0.014,0.021L88.791,87.95V0C71.18,0,54.783,5.148,40.978,13.99z"/>
		</defs>
		<clipPath id="SVGID_6_">
			<use xlink:href="#SVGID_5_"  overflow="visible"/>
		</clipPath>
		<g transform="matrix(1 0 0 1 -3.422323e-006 9.215946e-007)" clip-path="url(#SVGID_6_)">
			
				<image overflow="visible" width="400" height="400" xlink:href="nuevoazul.jpg"  transform="matrix(1.7967 0 0 1.7967 -203.9902 -126.3223)">
			</image>
		</g>
	</g>
</g>
<g>
	<g>
		<path fill="#FFFFFF" d="M66.627,37.04l1.799-3.164c-0.105,0.008-0.207,0.006-0.305-0.006s-0.191-0.027-0.281-0.047
			c-0.332-0.063-0.643-0.177-0.932-0.343s-0.541-0.371-0.756-0.615s-0.384-0.521-0.507-0.829s-0.185-0.637-0.185-0.984
			c0-0.426,0.081-0.82,0.243-1.184s0.382-0.678,0.659-0.943s0.604-0.474,0.979-0.624s0.773-0.226,1.195-0.226
			c0.414,0,0.807,0.075,1.178,0.226s0.696,0.356,0.976,0.618s0.5,0.57,0.662,0.926s0.243,0.738,0.243,1.148
			c0,0.195-0.02,0.382-0.059,0.56s-0.093,0.351-0.161,0.519s-0.146,0.334-0.231,0.498s-0.176,0.33-0.27,0.498l-2.197,3.973H66.627z
			 M68.573,32.218c0.227,0,0.434-0.04,0.621-0.12s0.344-0.2,0.469-0.36c0.055-0.102,0.101-0.212,0.138-0.331s0.056-0.249,0.056-0.39
			c0-0.133-0.026-0.271-0.079-0.416s-0.133-0.277-0.24-0.398s-0.244-0.22-0.41-0.296s-0.362-0.114-0.589-0.114
			c-0.164,0-0.325,0.027-0.483,0.082s-0.301,0.134-0.428,0.237s-0.229,0.23-0.308,0.381s-0.117,0.321-0.117,0.513
			c0,0.184,0.036,0.35,0.108,0.498s0.17,0.275,0.293,0.381s0.269,0.188,0.437,0.246S68.385,32.218,68.573,32.218z"/>
		<path fill="#FFFFFF" d="M72.821,30.19c0-0.293,0.055-0.57,0.164-0.832s0.263-0.491,0.46-0.688s0.432-0.354,0.703-0.469
			s0.569-0.173,0.894-0.173s0.622,0.058,0.894,0.173s0.506,0.271,0.703,0.469s0.351,0.427,0.46,0.688s0.164,0.539,0.164,0.832
			c0,0.289-0.054,0.563-0.161,0.823s-0.258,0.488-0.451,0.686s-0.427,0.354-0.7,0.472s-0.576,0.176-0.908,0.176
			c-0.336,0-0.64-0.058-0.911-0.173s-0.505-0.271-0.7-0.469s-0.346-0.427-0.451-0.688S72.821,30.479,72.821,30.19z M79.612,28.005
			h1.559l-6.006,9.023h-1.559L79.612,28.005z M75.042,29.382c-0.113,0-0.22,0.02-0.319,0.059s-0.187,0.094-0.261,0.164
			s-0.132,0.155-0.173,0.255s-0.062,0.21-0.062,0.331c0,0.109,0.021,0.214,0.062,0.313s0.099,0.187,0.173,0.261
			s0.161,0.133,0.261,0.176s0.206,0.064,0.319,0.064s0.22-0.021,0.319-0.064s0.186-0.101,0.258-0.173s0.13-0.158,0.173-0.258
			s0.064-0.206,0.064-0.319c0-0.121-0.021-0.231-0.064-0.331s-0.101-0.185-0.173-0.255s-0.158-0.125-0.258-0.164
			S75.155,29.382,75.042,29.382z M77.584,34.808c0-0.293,0.055-0.57,0.164-0.832s0.263-0.491,0.46-0.688s0.432-0.354,0.703-0.469
			s0.569-0.173,0.894-0.173s0.622,0.058,0.894,0.173s0.506,0.271,0.703,0.469s0.351,0.427,0.46,0.688s0.164,0.539,0.164,0.832
			c0,0.289-0.054,0.564-0.161,0.826s-0.258,0.491-0.451,0.688s-0.427,0.354-0.7,0.472s-0.576,0.176-0.908,0.176
			s-0.635-0.058-0.908-0.173s-0.507-0.271-0.7-0.469s-0.344-0.427-0.451-0.688S77.584,35.101,77.584,34.808z M79.805,34.005
			c-0.113,0-0.22,0.02-0.319,0.059s-0.187,0.094-0.261,0.164s-0.132,0.154-0.173,0.252s-0.062,0.207-0.062,0.328
			c0,0.113,0.021,0.219,0.062,0.316s0.099,0.184,0.173,0.258s0.161,0.133,0.261,0.176s0.206,0.064,0.319,0.064
			s0.22-0.021,0.319-0.062s0.186-0.099,0.258-0.173s0.13-0.161,0.173-0.261s0.064-0.206,0.064-0.319c0-0.121-0.021-0.23-0.064-0.328
			s-0.101-0.182-0.173-0.252s-0.158-0.125-0.258-0.164S79.918,34.005,79.805,34.005z"/>
	</g>
</g>
<g>
	<g>
		<path fill="#FFFFFF" d="M121.995,64.028c0-0.164-0.037-0.328-0.11-0.492c-0.073-0.164-0.181-0.311-0.319-0.442
			c-0.14-0.131-0.307-0.237-0.5-0.319s-0.408-0.123-0.643-0.123c-0.203,0-0.395,0.034-0.578,0.103
			c-0.183,0.068-0.344,0.16-0.482,0.274c-0.141,0.115-0.25,0.247-0.332,0.397c-0.082,0.15-0.123,0.405-0.123,0.766l-2.548-0.016
			c0.005-0.53,0.106-1.035,0.304-1.516c0.195-0.48,0.471-0.904,0.822-1.27c0.353-0.366,0.777-0.655,1.273-0.869
			c0.498-0.213,1.052-0.319,1.664-0.319c0.578,0,1.119,0.1,1.621,0.299c0.503,0.199,0.939,0.468,1.311,0.807
			c0.372,0.338,0.662,0.729,0.873,1.171s0.315,0.907,0.315,1.393c0,0.53-0.109,1.012-0.327,1.446
			c-0.219,0.434-0.517,0.785-0.894,1.053c0.196,0.109,0.38,0.254,0.549,0.434s0.318,0.388,0.446,0.623
			c0.129,0.235,0.229,0.492,0.303,0.77c0.074,0.279,0.111,0.571,0.111,0.876c0,0.535-0.109,1.043-0.328,1.524
			s-0.52,0.902-0.904,1.266c-0.386,0.363-0.84,0.651-1.364,0.864s-1.09,0.319-1.696,0.319c-0.573,0-1.107-0.09-1.602-0.27
			c-0.494-0.181-0.927-0.43-1.298-0.75c-0.372-0.319-0.671-0.696-0.897-1.13s-0.36-0.796-0.4-1.085
			c-0.041-0.289-0.064-0.59-0.07-0.901h2.572c0.033,0.573,0.197,0.995,0.496,1.266c0.297,0.27,0.708,0.405,1.232,0.405
			c0.234,0,0.455-0.04,0.659-0.119c0.205-0.079,0.384-0.186,0.536-0.319c0.153-0.134,0.275-0.291,0.365-0.471
			s0.135-0.374,0.135-0.582c0-0.218-0.039-0.422-0.119-0.61c-0.078-0.188-0.191-0.35-0.34-0.483
			c-0.146-0.134-0.327-0.239-0.54-0.315c-0.213-0.076-0.45-0.115-0.713-0.115h-1.146v-2.236h1.163c0.24,0,0.455-0.033,0.643-0.098
			c0.189-0.065,0.349-0.156,0.479-0.271c0.132-0.114,0.231-0.251,0.3-0.409C121.96,64.394,121.995,64.219,121.995,64.028z"/>
		<path fill="#FFFFFF" d="M125.885,70.655h1.303v-6.479l-1.908,1.139v-2.851l3.424-2.016l1.188,0.017v10.19h1.311V72.9h-5.316
			V70.655z"/>
		<path fill="#FFFFFF" d="M133.348,63.34c0-0.41,0.076-0.797,0.23-1.164c0.152-0.366,0.367-0.687,0.643-0.962
			s0.604-0.494,0.982-0.655c0.38-0.161,0.797-0.242,1.25-0.242s0.869,0.081,1.249,0.242s0.707,0.379,0.983,0.655
			c0.275,0.276,0.49,0.597,0.643,0.962c0.152,0.366,0.229,0.754,0.229,1.164c0,0.404-0.075,0.788-0.226,1.151
			s-0.36,0.683-0.631,0.958c-0.27,0.276-0.596,0.496-0.979,0.659c-0.383,0.164-0.806,0.246-1.27,0.246
			c-0.471,0-0.895-0.08-1.274-0.241s-0.706-0.38-0.979-0.656c-0.273-0.275-0.483-0.596-0.631-0.962
			C133.422,64.129,133.348,63.744,133.348,63.34z M142.842,60.285h2.18L136.625,72.9h-2.18L142.842,60.285z M136.454,62.209
			c-0.158,0-0.308,0.027-0.447,0.082c-0.139,0.055-0.26,0.131-0.364,0.229c-0.104,0.098-0.185,0.217-0.241,0.356
			c-0.058,0.139-0.086,0.293-0.086,0.463c0,0.153,0.028,0.299,0.086,0.438c0.057,0.139,0.138,0.261,0.241,0.365
			c0.104,0.104,0.226,0.186,0.364,0.246c0.14,0.06,0.289,0.09,0.447,0.09s0.307-0.03,0.446-0.09s0.259-0.141,0.36-0.242
			s0.182-0.221,0.242-0.36c0.06-0.139,0.09-0.288,0.09-0.446c0-0.169-0.03-0.324-0.09-0.463c-0.061-0.139-0.141-0.258-0.242-0.356
			s-0.221-0.175-0.36-0.229S136.612,62.209,136.454,62.209z M140.008,69.795c0-0.41,0.076-0.797,0.229-1.164
			c0.153-0.366,0.367-0.687,0.644-0.962c0.275-0.276,0.604-0.494,0.982-0.655c0.38-0.161,0.796-0.242,1.25-0.242
			c0.453,0,0.869,0.081,1.248,0.242c0.381,0.161,0.708,0.379,0.983,0.655c0.276,0.276,0.49,0.597,0.644,0.962
			c0.152,0.366,0.229,0.754,0.229,1.164c0,0.404-0.074,0.789-0.225,1.155c-0.15,0.366-0.36,0.687-0.631,0.963
			c-0.271,0.275-0.597,0.495-0.979,0.659c-0.383,0.164-0.807,0.246-1.27,0.246c-0.465,0-0.889-0.081-1.271-0.242
			s-0.708-0.379-0.979-0.655c-0.271-0.275-0.481-0.597-0.631-0.962C140.083,70.593,140.008,70.205,140.008,69.795z M143.114,68.673
			c-0.159,0-0.308,0.027-0.447,0.082c-0.139,0.055-0.261,0.131-0.364,0.229c-0.104,0.098-0.185,0.216-0.241,0.352
			c-0.058,0.137-0.086,0.29-0.086,0.459c0,0.158,0.028,0.306,0.086,0.442c0.057,0.136,0.137,0.256,0.241,0.36
			c0.104,0.104,0.226,0.186,0.364,0.246c0.14,0.06,0.288,0.09,0.447,0.09c0.158,0,0.307-0.029,0.445-0.086
			c0.14-0.058,0.26-0.138,0.361-0.242c0.101-0.104,0.182-0.226,0.241-0.365s0.091-0.288,0.091-0.446
			c0-0.169-0.031-0.322-0.091-0.459c-0.06-0.136-0.141-0.254-0.241-0.352c-0.102-0.099-0.222-0.175-0.361-0.229
			C143.42,68.7,143.272,68.673,143.114,68.673z"/>
	</g>
</g>
<g>
	<g>
		<path fill="#FFFFFF" d="M78.782,115.655l-3.072,5.378c0.18-0.013,0.354-0.012,0.522,0.005s0.337,0.042,0.502,0.075
			c0.563,0.106,1.091,0.3,1.581,0.582s0.916,0.629,1.277,1.043s0.646,0.884,0.854,1.407c0.209,0.523,0.313,1.08,0.313,1.67
			c0,0.723-0.138,1.392-0.412,2.008c-0.275,0.617-0.652,1.15-1.129,1.601c-0.477,0.451-1.032,0.804-1.665,1.06
			c-0.634,0.255-1.308,0.382-2.023,0.382c-0.702,0-1.366-0.127-1.993-0.382c-0.627-0.256-1.175-0.604-1.646-1.044
			c-0.47-0.441-0.843-0.963-1.118-1.566c-0.275-0.603-0.412-1.252-0.412-1.948c0-0.331,0.033-0.647,0.1-0.949
			c0.065-0.302,0.155-0.597,0.268-0.885c0.113-0.288,0.242-0.572,0.388-0.851s0.298-0.56,0.458-0.845l3.728-6.74H78.782z
			 M75.491,123.847c-0.404,0-0.77,0.075-1.098,0.224c-0.328,0.149-0.599,0.363-0.811,0.642c-0.086,0.166-0.158,0.345-0.214,0.537
			s-0.085,0.404-0.085,0.636c0,0.232,0.045,0.469,0.135,0.711s0.227,0.464,0.412,0.666s0.422,0.368,0.706,0.497
			c0.285,0.13,0.623,0.194,1.015,0.194c0.265,0,0.533-0.047,0.805-0.14s0.514-0.226,0.726-0.397s0.386-0.386,0.522-0.642
			c0.136-0.255,0.203-0.545,0.203-0.869c0-0.312-0.061-0.594-0.184-0.846s-0.29-0.467-0.502-0.646
			c-0.212-0.18-0.457-0.318-0.736-0.418C76.108,123.896,75.809,123.847,75.491,123.847z"/>
		<path fill="#FFFFFF" d="M87.948,130.886c-1.061,0-1.962-0.195-2.704-0.587c-0.742-0.391-1.347-0.93-1.814-1.615
			c-0.467-0.686-0.808-1.494-1.024-2.426c-0.215-0.932-0.322-1.934-0.322-3.007c0-1.061,0.103-2.06,0.309-2.998
			c0.205-0.938,0.539-1.759,1.004-2.465c0.463-0.706,1.07-1.264,1.818-1.675c0.75-0.411,1.668-0.616,2.754-0.616
			c1.074,0,1.984,0.202,2.729,0.606s1.351,0.955,1.814,1.65s0.8,1.509,1.009,2.44s0.313,1.924,0.313,2.978
			c0,1.067-0.107,2.069-0.322,3.008c-0.215,0.938-0.557,1.754-1.023,2.45c-0.468,0.696-1.076,1.246-1.824,1.65
			C89.913,130.684,89.008,130.886,87.948,130.886z M87.948,127.834c0.59,0,1.059-0.118,1.406-0.354
			c0.349-0.235,0.615-0.56,0.801-0.974c0.186-0.415,0.305-0.907,0.357-1.477c0.054-0.57,0.08-1.189,0.08-1.859
			c0-0.656-0.026-1.268-0.08-1.834c-0.053-0.567-0.17-1.061-0.353-1.481s-0.447-0.75-0.795-0.989
			c-0.349-0.238-0.813-0.358-1.397-0.358c-0.59,0-1.061,0.12-1.411,0.358c-0.352,0.239-0.62,0.568-0.806,0.989
			s-0.307,0.915-0.363,1.481c-0.056,0.566-0.084,1.178-0.084,1.834c0,0.67,0.028,1.289,0.084,1.859
			c0.057,0.569,0.176,1.062,0.358,1.477c0.183,0.414,0.448,0.738,0.796,0.974S87.358,127.834,87.948,127.834z"/>
		<path fill="#FFFFFF" d="M96.249,119.145c0-0.497,0.094-0.967,0.279-1.412c0.186-0.444,0.445-0.833,0.779-1.168
			c0.336-0.335,0.732-0.6,1.193-0.795s0.967-0.293,1.516-0.293c0.551,0,1.057,0.098,1.517,0.293c0.461,0.195,0.858,0.46,1.193,0.795
			c0.335,0.334,0.595,0.724,0.78,1.168c0.186,0.444,0.278,0.915,0.278,1.412c0,0.491-0.091,0.956-0.273,1.397
			s-0.438,0.829-0.766,1.163s-0.724,0.602-1.188,0.8c-0.463,0.199-0.977,0.298-1.541,0.298c-0.569,0-1.084-0.098-1.545-0.293
			s-0.857-0.46-1.188-0.795c-0.331-0.334-0.587-0.724-0.765-1.168C96.338,120.103,96.249,119.635,96.249,119.145z M107.771,115.437
			h2.645l-10.19,15.31h-2.645L107.771,115.437z M100.016,117.773c-0.191,0-0.372,0.033-0.541,0.099s-0.316,0.159-0.442,0.278
			c-0.126,0.12-0.224,0.264-0.294,0.433c-0.068,0.169-0.104,0.356-0.104,0.562c0,0.186,0.035,0.363,0.104,0.532
			c0.07,0.169,0.168,0.316,0.294,0.442s0.273,0.225,0.442,0.298c0.169,0.073,0.35,0.109,0.541,0.109
			c0.193,0,0.373-0.036,0.543-0.109c0.168-0.073,0.314-0.17,0.438-0.293c0.122-0.123,0.22-0.269,0.293-0.438
			c0.072-0.169,0.109-0.35,0.109-0.542c0-0.205-0.037-0.393-0.109-0.562c-0.073-0.169-0.171-0.313-0.293-0.433
			c-0.123-0.119-0.27-0.212-0.438-0.278C100.389,117.806,100.209,117.773,100.016,117.773z M104.332,126.979
			c0-0.497,0.093-0.968,0.278-1.411c0.186-0.444,0.445-0.834,0.78-1.169c0.335-0.334,0.732-0.6,1.192-0.795
			c0.461-0.195,0.967-0.293,1.517-0.293s1.056,0.098,1.517,0.293s0.857,0.461,1.192,0.795c0.335,0.335,0.595,0.725,0.78,1.169
			c0.186,0.443,0.279,0.914,0.279,1.411c0,0.49-0.092,0.958-0.273,1.401c-0.183,0.444-0.438,0.834-0.766,1.169
			c-0.328,0.334-0.725,0.601-1.188,0.8s-0.978,0.299-1.541,0.299s-1.077-0.099-1.541-0.294s-0.86-0.46-1.188-0.795
			c-0.327-0.335-0.582-0.725-0.765-1.168C104.422,127.946,104.332,127.476,104.332,126.979z M108.099,125.616
			c-0.192,0-0.372,0.033-0.542,0.1c-0.168,0.066-0.316,0.159-0.441,0.278c-0.127,0.119-0.225,0.262-0.294,0.428
			s-0.104,0.352-0.104,0.557c0,0.192,0.035,0.371,0.104,0.537c0.069,0.165,0.167,0.312,0.294,0.438
			c0.125,0.126,0.273,0.225,0.441,0.298c0.17,0.073,0.35,0.109,0.542,0.109s0.373-0.035,0.542-0.104s0.314-0.167,0.438-0.293
			s0.221-0.273,0.293-0.442c0.073-0.169,0.109-0.35,0.109-0.542c0-0.205-0.036-0.391-0.109-0.557
			c-0.072-0.166-0.17-0.309-0.293-0.428s-0.269-0.212-0.438-0.278S108.292,125.616,108.099,125.616z"/>
	</g>
</g>
</svg>
